<?xml version="1.0" encoding="utf-8"?>
<!DOCTYPE svg PUBLIC "-//W3C//DTD SVG 1.1//EN" "http://www.w3.org/Graphics/SVG/1.1/DTD/svg11.dtd">
<svg version="1.1" id="Layer_1" xmlns="http://www.w3.org/2000/svg" xmlns:xlink="http://www.w3.org/1999/xlink" x="0px" y="0px"
	 width="311.825px" height="54.119px" viewBox="0 0 311.825 54.119" enable-background="new 0 0 311.825 54.119"
	 xml:space="preserve">
<path fill="#74C45A" d="M7.983,17.923l-5.764-6.82c-1.057,2.062-1.85,4.282-2.167,6.661l0.106,0.159H7.983z"/>
<path fill="#74C45A" d="M20.803,30.11h18.792v-5.97H12.255C13.512,27.659,16.843,30.11,20.803,30.11"/>
<path fill="#74C45A" d="M6.033,24.14H0c1.508,10.181,10.181,17.975,20.803,17.975h18.792v-5.972H20.803
	C13.512,36.144,7.479,31.054,6.033,24.14"/>
<path fill="#74C45A" d="M23.792,17.923L10.786,2.538C8.988,3.49,7.401,4.705,5.974,6.133l9.993,11.791H23.792z"/>
<path fill="#74C45A" d="M39.6,17.923L24.373,0h-3.594c-1.323,0-2.592,0.105-3.86,0.37l14.803,17.553H39.6z"/>
<polygon fill="#74C45A" points="39.595,0.005 32.367,0.005 39.595,8.553 "/>
<polygon fill="#74C45A" points="33.179,54.119 39.595,54.119 39.595,48.148 28.134,48.148 "/>
<path fill="#474747" d="M76.696,7.352c9.571,0,17.265,7.319,17.265,16.937c0,4.41-1.688,8.257-4.363,11.119l3.19,3.847l-3.941,3.284
	l-3.284-3.895c-2.486,1.643-5.583,2.487-8.867,2.487c-9.57,0-17.312-7.272-17.312-16.843C59.384,14.67,67.125,7.352,76.696,7.352
	 M76.696,35.829c1.971,0,3.706-0.469,5.208-1.313l-4.598-5.442l3.941-3.331l4.645,5.489c1.407-1.782,2.252-4.27,2.252-6.943
	c0-6.521-4.973-11.635-11.448-11.635c-6.521,0-11.541,5.114-11.541,11.635C65.155,30.856,70.175,35.829,76.696,35.829"/>
<path fill="#474747" d="M98.744,16.969h5.677v13.793c0,3.706,2.205,5.301,5.161,5.301c2.955,0,5.161-1.595,5.161-5.349V16.969h5.677
	v14.122c0,6.85-4.973,10.134-10.885,10.134c-5.864,0-10.791-3.237-10.791-9.993V16.969z"/>
<path fill="#474747" d="M137.73,16.265c7.131,0,12.902,5.442,12.902,12.527c0,7.084-5.771,12.526-12.902,12.526
	c-7.178,0-12.902-5.442-12.902-12.526C124.828,21.708,130.552,16.265,137.73,16.265 M137.73,36.205c4.128,0,7.319-3.238,7.319-7.413
	c0-4.176-3.19-7.413-7.319-7.413c-4.176,0-7.319,3.237-7.319,7.413C130.411,32.967,133.554,36.205,137.73,36.205"/>
<polygon fill="#474747" points="156.917,22.083 153.867,22.083 153.867,16.969 156.917,16.969 156.917,7.915 162.547,7.915 
	162.547,16.969 167.661,16.969 167.661,22.083 162.547,22.083 162.547,40.614 156.917,40.614 "/>
<path fill="#474747" d="M169.678,28.792c0-7.601,5.301-12.479,12.386-12.479c7.037,0,11.682,5.301,11.682,11.917
	c0,0,0,1.032-0.094,1.97h-18.391c0.188,3.754,2.955,6.192,7.131,6.192c2.862,0,4.598-0.938,6.381-2.721l3.378,3.284
	c-3.05,3.237-6.381,4.223-9.946,4.223c-7.413,0-12.526-4.786-12.526-12.198V28.792z M188.021,26.259
	c0-2.815-2.674-5.161-5.958-5.161c-3.519,0-6.428,2.299-6.662,5.161H188.021z"/>
<path fill="#474747" d="M199.374,7.915h12.479c5.209,0,10.65,4.035,10.65,10.649c0,6.24-5.208,10.604-10.65,10.604h-6.614v11.446
	h-5.864V7.915z M211.571,23.866c2.346,0,5.114-1.689,5.114-5.302c0-3.706-2.769-5.348-5.114-5.348h-6.333v10.65H211.571z"/>
<path fill="#474747" d="M227.381,16.969h5.583v3.519c1.126-2.439,3.659-3.988,7.037-3.988c0.61,0,1.454,0.094,1.688,0.141v5.442
	c-0.656-0.141-1.454-0.235-2.346-0.235c-3.894,0-6.38,2.44-6.38,6.333v12.433h-5.583V16.969z"/>
<path fill="#474747" d="M243.848,28.792c0-7.601,5.302-12.479,12.386-12.479c7.037,0,11.682,5.301,11.682,11.917
	c0,0,0,1.032-0.094,1.97h-18.391c0.188,3.754,2.956,6.192,7.131,6.192c2.862,0,4.598-0.938,6.381-2.721l3.378,3.284
	c-3.05,3.237-6.381,4.223-9.946,4.223c-7.412,0-12.526-4.786-12.526-12.198V28.792z M262.191,26.259
	c0-2.815-2.674-5.161-5.958-5.161c-3.519,0-6.428,2.299-6.662,5.161H262.191z"/>
<path fill="#474747" d="M274.106,33.39c0.985,1.596,3.19,2.955,6.24,2.955c3.237,0,4.223-1.359,4.223-2.58
	c0-1.971-2.815-2.439-6.475-3.753c-3.472-1.267-5.817-3.05-5.817-6.662c0-4.551,3.847-7.085,8.351-7.085
	c3.941,0,6.568,1.501,8.21,3.566l-3.144,3.331c-0.984-1.173-2.58-2.064-5.16-2.064c-1.783,0-2.862,0.844-2.862,2.111
	c0,1.783,1.971,2.017,5.958,3.472c4.364,1.549,6.334,3.612,6.334,7.037c0,4.082-2.955,7.507-9.711,7.507
	c-4.927,0-8.305-1.971-9.759-4.786L274.106,33.39z"/>
<path fill="#474747" d="M295.969,33.39c0.984,1.596,3.189,2.955,6.239,2.955c3.237,0,4.223-1.359,4.223-2.58
	c0-1.971-2.815-2.439-6.475-3.753c-3.472-1.267-5.817-3.05-5.817-6.662c0-4.551,3.847-7.085,8.351-7.085
	c3.941,0,6.568,1.501,8.211,3.566l-3.145,3.331c-0.984-1.173-2.579-2.064-5.16-2.064c-1.782,0-2.861,0.844-2.861,2.111
	c0,1.783,1.97,2.017,5.957,3.472c4.364,1.549,6.334,3.612,6.334,7.037c0,4.082-2.955,7.507-9.711,7.507
	c-4.926,0-8.305-1.971-9.759-4.786L295.969,33.39z"/>
</svg>
